<?xml version="1.0" encoding="utf-8"?>
<!-- Generator: Adobe Illustrator 23.0.3, SVG Export Plug-In . SVG Version: 6.00 Build 0)  -->
<svg class="home" version="1.1" id="Icons" xmlns="http://www.w3.org/2000/svg" xmlns:xlink="http://www.w3.org/1999/xlink" x="0px" y="0px"
	 viewBox="0 0 32 32" style="enable-background:new 0 0 32 32;" xml:space="preserve">
<style type="text/css">
	.st0{fill:none;stroke:#ffffff;stroke-width:2;stroke-linecap:round;stroke-linejoin:round;stroke-miterlimit:10;}
</style>
<path class="st0" d="M23.3,19.3c0,0-1.7,0-2.8-0.8c-2.1-1.4-2.2-3.6-0.6-5.4s5.1-2.6,5.1-2.6V7l-1.2,0.4C18,9.1,12.8,12.7,9,17.6
	l0,0"/>
<path class="st0" d="M8,11V8.8C8,7.8,8.8,7,9.8,7H13v2"/>
<path class="st0" d="M13,9V4.5C13,3.7,13.7,3,14.5,3h0C15.3,3,16,3.7,16,4.5V10"/>
<path class="st0" d="M16,10V6.5C16,5.7,16.7,5,17.5,5h0C18.3,5,19,5.7,19,6.5V9"/>
<path class="st0" d="M21.1,12.5c1.2,1.3,2.1,3,2.4,5.1C24.1,21,28.3,29,19.2,29C14.3,29,6,24.6,6,17.6c0-4.4,3.1-7.9,7.9-7.9
	c1.2,0,2.4,0.2,3.5,0.5"/>
</svg>
